# AST/ASF file generated using VICON BodyLanguage
# -----------------------------------------------
:version 1.10
:name VICON
:units
  mass 1.0
  length 0.45
  angle deg
:documentation
   .ast/.asf automatically generated from VICON data using
   VICON BodyBuilder and BodyLanguage model FoxedUp or BRILLIANT.MOD
:root
   order TX TY TZ RX RY RZ
   axis XYZ
   position 0 0 0  
   orientation 0 0 0 
:bonedata
  begin
     id 1 
     name lhipjoint
     direction 0.646657 -0.683706 0.338203 
     length 2.4948 
     axis 0 0 0  XYZ
  end
  begin
     id 2 
     name lfemur
     direction 0.34202 -0.939693 0  
     length 6.79491  
     axis 0 0 20  XYZ
    dof rx ry rz
    limits (-160.0 20.0)
           (-70.0 70.0)
           (-60.0 70.0)
  end
  begin
     id 3 
     name ltibia
     direction 0.34202 -0.939693 0   
     length 7.56807   
     axis 0 0 20   XYZ
    dof rx
    limits (-10.0 170.0)
  end
  begin
     id 4 
     name lfoot
     direction 0.0679796 -0.186772 0.980048   
     length 2.53018   
     axis -90 7.62852e-016 20   XYZ
    dof rx rz
    limits (-45.0 90.0)
           (-70.0 20.0)
  end
  begin
     id 5 
     name ltoes
     direction 1.53625e-011 -4.21881e-011 1   
     length 1.26912   
     axis -90 7.62852e-016 20   XYZ
    dof rx
    limits (-90.0 20.0)
  end
  begin
     id 6 
     name rhipjoint
     direction -0.618868 -0.704065 0.348274   
     length 2.42265  
     axis 0 0 0  XYZ 
  end
  begin
     id 7 
     name rfemur
     direction -0.34202 -0.939693 0   
     length 6.73814   
     axis 0 0 -20   XYZ
    dof rx ry rz
    limits (-160.0 20.0)
           (-70.0 70.0)
           (-70.0 60.0)
  end
  begin
     id 8 
     name rtibia
     direction -0.34202 -0.939693 0   
     length 7.66799   
     axis 0 0 -20   XYZ
    dof rx
    limits (-10.0 170.0)
 end
 begin
     id 9 
     name rfoot
     direction -0.0727352 -0.199838 0.977125   
     length 2.57224  
     axis -90 -7.62852e-016 -20   XYZ
    dof rx rz
    limits (-45.0 90.0)
           (-20.0 70.0)
  end
  begin
     id 10 
     name rtoes
     direction -1.53501e-011 -4.21858e-011 1   
     length 1.28858   
     axis -90 -7.62852e-016 -20   XYZ
    dof rx
    limits (-90.0 20.0)
  end
  begin
     id 11 
     name lowerback
     direction -0.0172471 0.995767 -0.0902851   
     length 2.20206   
     axis 0 0 0   XYZ
    dof rx ry rz
    limits (-20.0 45.0)
           (-30.0 30.0)
           (-30.0 30.0)
  end
  begin
     id 12 
     name upperback
     direction -0.000110737 0.999714 0.0239043   
     length 2.19523   
     axis 0 0 0   XYZ
    dof rx ry rz
    limits (-20.0 45.0)
           (-30.0 30.0)
           (-30.0 30.0)
  end
  begin
     id 13 
     name thorax
     direction 0.00704869 0.997783 0.0661741   
     length 2.21977   
     axis 0 0 0   XYZ
    dof rx ry rz
    limits (-20.0 45.0)
           (-30.0 30.0)
           (-30.0 30.0)
  end
  begin
     id 14 
     name lowerneck
     direction -0.00407501 0.995527 0.0943846   
     length 1.83142   
     axis 0 0 0   XYZ
    dof rx ry rz
    limits (-20.0 45.0)
           (-30.0 30.0)
           (-30.0 30.0)
  end
  begin
     id 15 
     name upperneck
     direction 0.0640586 0.986486 -0.150807   
     length 1.84616   
     axis 0 0 0   XYZ
    dof rx ry rz
    limits (-20.0 45.0)
           (-30.0 30.0)
           (-30.0 30.0)
  end
  begin
     id 16
     name head
     direction 0.0188017 0.99791 -0.0618239  
     length 1.85932  
     axis 0 0 0   XYZ
    dof rx ry rz
    limits (-20.0 45.0)
           (-30.0 30.0)
           (-30.0 30.0)
  end
  begin
     id 17 
     name lclavicle
     direction 0.976074 0.206905 0.066852  
     length 3.81043  
     axis 0 0 0   XYZ
    dof ry rz
    limits (-20.0 10.0)
           (0.0 20.0)
  end
  begin
     id 18 
     name lhumerus
     direction 1 -4.48971e-011 1.86916e-027   
     length 5.37587   
     axis 180 -30 -90   XYZ
    dof rx ry rz
    limits (-60.0 90.0)
           (-90.0 90.0)
           (-90.0 90.0)
  end
  begin
     id 19
     name lradius
     direction 1 -4.48968e-011 1.69187e-027   
     length 3.35977   
     axis 180 -30 -90   XYZ
    dof rx
    limits (-10.0 170.0)
  end
  begin
     id 20
     name lwrist
     direction 1 -4.48968e-011 5.8978e-027   
     length 1.67988   
     axis -3.27506e-015 90 90   XYZ
    dof ry
    limits (-180.0 0.0)
 end
  begin
     id 21 
     name lhand
     direction 1 -4.49028e-011 1.18071e-026   
     length 0.561859   
     axis -7.52654e-015 90 90   XYZ
    dof rx rz
    limits (-90.0 90.0)
           (-45.0 45.0)
  end
  begin
     id 22 
     name lfingers
     direction 1 -4.48927e-011 2.35758e-026   
     length 0.452985   
     axis -1.50534e-014 90 90   XYZ
    dof rx
    limits (0.0 90.0)
  end
  begin
     id 23
     name lthumb
     direction 0.707107 -6.34898e-011 0.707107   
     length 0.650399   
     axis -90 45 5.69224e-014   XYZ
    dof rx rz
    limits (-45.0 45.0)
           (-45.0 45.0)
  end
  begin
     id 24 
     name rclavicle
     direction -0.988403 0.151789 0.00439714   
     length 3.6942  
     axis 0 0 0   XYZ 
    dof ry rz
    limits (-10.0 20.0)
           (-20.0 0.0)
  end
  begin
     id 25 
     name rhumerus
     direction -1 -4.48978e-011 1.62495e-027  
     length 5.22819   
     axis 180 30 90   XYZ
    dof rx ry rz
    limits (-90.0 60.0)
           (-90.0 90.0)
           (-90.0 90.0)
  end
  begin
     id 26 
     name rradius
     direction -1 -4.48961e-011 3.47796e-027   
     length 3.40764   
     axis 180 30 90   XYZ
    dof rx
    limits (-10.0 170.0)
  end
  begin
     id 27 
     name rwrist
     direction -1 -4.48949e-011 5.89602e-027   
     length 1.70382   
     axis -3.27506e-015 -90 -90   XYZ
    dof ry
    limits (-180.0 0.0)
  end
  begin
     id 28
     name rhand
     direction -1 -4.48977e-011 1.17973e-026   
     length 0.583255   
     axis -7.52654e-015 -90 -90   XYZ
    dof rx rz
    limits (-90.0 90.0)
           (-45.0 45.0)
  end
  begin
     id 29
     name rfingers
     direction -1 -4.49099e-011 2.36408e-026   
     length 0.470235   
     axis -1.50534e-014 -90 -90   XYZ
    dof rx
    limits (0.0 90.0)
  end
  begin
     id 30
     name rthumb
     direction -0.707107 -6.35011e-011 0.707107   
     length 0.675167   
     axis -90 -45 -5.69224e-014   XYZ
    dof rx rz
    limits (-45.0 45.0)
           (-45.0 45.0)
  end
:hierarchy
  begin
    root lhipjoint rhipjoint lowerback
    lhipjoint lfemur
    lfemur ltibia
    ltibia lfoot
    lfoot ltoes
    rhipjoint rfemur
    rfemur rtibia
    rtibia rfoot
    rfoot rtoes
    lowerback upperback
    upperback thorax
    thorax lowerneck lclavicle rclavicle
    lowerneck upperneck
    upperneck head
    lclavicle lhumerus
    lhumerus lradius
    lradius lwrist
    lwrist lhand lthumb
    lhand lfingers
    rclavicle rhumerus
    rhumerus rradius
    rradius rwrist
    rwrist rhand rthumb
    rhand rfingers
  end

#!OML:ASF G:\JayActor3\Patient Classification 1\Patient 1\Session 2\male.ASF
:FULLY-SPECIFIED
:DEGREES
1911
root -8.64024 16.6528 -3.66871 -190.462 72.3509 -200.531
lowerback 4.80773 -3.15209 0.211541
upperback 2.11089 -4.06793 3.12291
thorax -0.305701 -2.00944 3.28898
lowerneck -12.002 -3.13669 -1.53351
upperneck 9.60764 -4.62278 5.78593
head 5.02839 -1.91592 1.68818
rclavicle 1.19271e-015 1.43125e-014
rhumerus -49.557 6.98247 -82.2421
rradius 48.5093
rwrist -7.23338
rhand -25.3533 5.01392
rfingers 7.12502
rthumb 1.17037 -24.9626
lclavicle 1.19271e-015 1.43125e-014
lhumerus -40.973 -40.6692 109.686
lradius 89.5968
lwrist 16.4553
lhand -12.8735 14.5963
lfingers 7.12502
lthumb 13.2151 44.1574
rfemur -35.194 2.46429 13.7275
rtibia 49.0749
rfoot -22.3994 -13.1463
rtoes 14.0615
lfemur 7.46349 5.82429 -17.7056
ltibia 27.7904
lfoot -1.82942 10.2338
ltoes 4.53927
1912
root -8.54251 16.6574 -3.65476 -190.514 72.3256 -200.499
lowerback 4.8112 -3.16667 0.191834
upperback 2.06816 -4.08804 3.13115
thorax -0.348457 -2.01954 3.31115
lowerneck -11.9973 -3.09249 -1.53431
upperneck 9.25593 -4.56285 5.9361
head 4.92035 -1.88395 1.74108
rclavicle 4.49253e-014 -4.6118e-014
rhumerus -49.5779 6.89579 -82.2898
rradius 48.4697
rwrist -7.20096
rhand -25.3882 5.0314
rfingers 7.12502
rthumb 1.13667 -24.9453
lclavicle 4.49253e-014 -4.6118e-014
lhumerus -41.3265 -40.3266 109.715
lradius 89.0123
lwrist 16.3816
lhand -12.8503 14.6295
lfingers 7.12502
lthumb 13.2375 44.1892
rfemur -34.7952 2.61658 13.9079
rtibia 49.1843
rfoot -22.5757 -13.2989
rtoes 13.5891
lfemur 7.05874 5.75606 -17.7044
ltibia 28.6959
lfoot -2.43448 10.5595
ltoes 4.95034
1913
root -8.44662 16.662 -3.64147 -190.492 72.3008 -200.38
lowerback 4.81734 -3.18213 0.199386
upperback 2.02538 -4.10794 3.13656
thorax -0.394902 -2.02922 3.31539
lowerneck -11.9894 -3.04708 -1.53174
upperneck 8.92554 -4.50119 6.08198
head 4.81823 -1.85096 1.79206
rclavicle 3.61788e-014 -1.59028e-014
rhumerus -49.5914 6.79749 -82.3463
rradius 48.4276
rwrist -7.15575
rhand -25.4182 5.03635
rfingers 7.12502
rthumb 1.10762 -24.9405
lclavicle 3.61788e-014 -1.59028e-014
lhumerus -41.6719 -39.9658 109.71
lradius 88.3959
lwrist 16.3578
lhand -12.8329 14.6772
lfingers 7.12502
lthumb 13.2542 44.2358
rfemur -34.3935 2.75157 14.1113
rtibia 49.2926
rfoot -22.7137 -13.4364
rtoes 13.0644
lfemur 6.63328 5.64396 -17.7003
ltibia 29.5924
lfoot -3.08846 10.8822
ltoes 5.36418
1914
root -8.35243 16.6669 -3.62874 -190.398 72.2758 -200.171
lowerback 4.83147 -3.20016 0.231534
upperback 1.98464 -4.12973 3.14193
thorax -0.445362 -2.03956 3.3064
lowerneck -11.9839 -2.99792 -1.52727
upperneck 8.62288 -4.43422 6.21944
head 4.72468 -1.81531 1.84028
rclavicle -6.36111e-015 -3.81667e-014
rhumerus -49.595 6.69813 -82.4121
rradius 48.3835
rwrist -7.10123
rhand -25.4387 5.0332
rfingers 7.12502
rthumb 1.08791 -24.9438
lclavicle -6.36111e-015 -3.81667e-014
lhumerus -42.0084 -39.5771 109.676
lradius 87.7412
lwrist 16.3874
lhand -12.843 14.7444
lfingers 7.12502
lthumb 13.2445 44.3036
rfemur -33.9782 2.86769 14.3414
rtibia 49.3937
rfoot -22.811 -13.5687
rtoes 12.4533
lfemur 6.19286 5.49965 -17.6876
ltibia 30.4778
lfoot -3.74216 11.1861
ltoes 5.66555
1915
root -8.26046 16.6723 -3.61674 -190.225 72.2536 -199.871
lowerback 4.84735 -3.21844 0.289059
upperback 1.94424 -4.15031 3.15086
thorax -0.498087 -2.04906 3.28703
lowerneck -11.9732 -2.94591 -1.51465
upperneck 8.33933 -4.36257 6.33505
head 4.63531 -1.77833 1.88065
rclavicle -4.37326e-015 -3.33958e-014
rhumerus -49.5904 6.60374 -82.484
rradius 48.3408
rwrist -7.03822
rhand -25.459 5.02764
rfingers 7.12502
rthumb 1.06824 -24.9494
lclavicle -4.37326e-015 -3.33958e-014
lhumerus -42.3313 -39.1572 109.615
lradius 87.0367
lwrist 16.4804
lhand -12.8913 14.8155
lfingers 7.12502
lthumb 13.198 44.3777
rfemur -33.5596 2.96717 14.5969
rtibia 49.4832
rfoot -22.8674 -13.69
rtoes 11.8036
lfemur 5.72781 5.3233 -17.6692
ltibia 31.3479
lfoot -4.38025 11.462
ltoes 5.84571
1916
root -8.17002 16.6788 -3.60488 -189.985 72.226 -199.488
lowerback 4.86713 -3.23944 0.3593
upperback 1.90659 -4.17348 3.16461
thorax -0.550601 -2.05971 3.26584
lowerneck -11.959 -2.89129 -1.49794
upperneck 8.07615 -4.2866 6.4324
head 4.55098 -1.73999 1.91488
rclavicle -1.82882e-014 1.90833e-014
rhumerus -49.578 6.52288 -82.5647
rradius 48.3012
rwrist -6.97407
rhand -25.473 5.02412
rfingers 7.12502
rthumb 1.05473 -24.953
lclavicle -1.82882e-014 1.90833e-014
lhumerus -42.6369 -38.7032 109.53
lradius 86.2693
lwrist 16.6422
lhand -12.9974 14.8839
lfingers 7.12502
lthumb 13.0957 44.4527
rfemur -33.123 3.05622 14.8774
rtibia 49.5602
rfoot -22.8962 -13.8125
rtoes 11.1295
lfemur 5.25157 5.12805 -17.6374
ltibia 32.1948
lfoot -5.0017 11.6803
ltoes 5.8465
1917
root -8.08085 16.6863 -3.59319 -189.692 72.1945 -199.039
lowerback 4.88729 -3.26197 0.437007
upperback 1.8715 -4.19802 3.18254
thorax -0.60088 -2.07101 3.24486
lowerneck -11.9391 -2.83589 -1.47433
upperneck 7.83152 -4.2091 6.50916
head 4.47073 -1.7018 1.94163
rclavicle 2.98177e-014 -1.74931e-014
rhumerus -49.5594 6.46125 -82.6567
rradius 48.2674
rwrist -6.91674
rhand -25.4907 5.02521
rfingers 7.12502
rthumb 1.03762 -24.952
lclavicle 2.98177e-014 -1.74931e-014
lhumerus -42.9216 -38.2167 109.418
lradius 85.4232
lwrist 16.8817
lhand -13.1696 14.9393
lfingers 7.12502
lthumb 12.9298 44.5187
rfemur -32.6738 3.13428 15.1779
rtibia 49.6286
rfoot -22.8944 -13.9324
rtoes 10.437
lfemur 4.76593 4.92847 -17.593
ltibia 33.0138
lfoot -5.61425 11.8273
ltoes 5.64032
1918
root -7.99307 16.6949 -3.58165 -189.368 72.1579 -198.547
lowerback 4.90372 -3.28429 0.512275
upperback 1.83829 -4.22227 3.20491
thorax -0.646693 -2.08222 3.22953
lowerneck -11.9184 -2.78375 -1.45315
upperneck 7.61019 -4.1352 6.57229
head 4.39742 -1.6659 1.96412
rclavicle 1.98785e-015 3.02153e-014
rhumerus -49.5339 6.42364 -82.7573
rradius 48.2405
rwrist -6.87603
rhand -25.5006 5.01873
rfingers 7.12502
rthumb 1.02812 -24.9585
lclavicle 1.98785e-015 3.02153e-014
lhumerus -43.1799 -37.7072 109.281
lradius 84.4825
lwrist 17.1941
lhand -13.4225 14.9889
lfingers 7.12502
lthumb 12.6859 44.5836
rfemur -32.2227 3.19074 15.4894
rtibia 49.6971
rfoot -22.8669 -14.0274
rtoes 9.79109
lfemur 4.26884 4.73669 -17.5412
ltibia 33.7998
lfoot -6.22572 11.8966
ltoes 5.23506
1919
root -7.90665 16.7038 -3.57025 -189.035 72.117 -198.036
lowerback 4.91874 -3.30661 0.579059
upperback 1.80769 -4.24685 3.22954
thorax -0.688263 -2.09368 3.22111
lowerneck -11.8987 -2.73417 -1.43553
upperneck 7.40911 -4.06429 6.6273
head 4.33054 -1.63166 1.9843
rclavicle 2.26615e-014 -8.26944e-014
rhumerus -49.4962 6.41154 -82.8666
rradius 48.2155
rwrist -6.85003
rhand -25.5089 5.00994
rfingers 7.12502
rthumb 1.02009 -24.9674
lclavicle 2.26615e-014 -8.26944e-014
lhumerus -43.4035 -37.1803 109.118
lradius 83.4321
lwrist 17.5655
lhand -13.7598 15.0127
lfingers 7.12502
lthumb 12.3607 44.6273
rfemur -31.7779 3.21348 15.8067
rtibia 49.7778
rfoot -22.8017 -14.0975
rtoes 9.15808
lfemur 3.76344 4.56982 -17.4842
ltibia 34.5517
lfoot -6.84652 11.8757
ltoes 4.64034
1920
root -7.8218 16.7128 -3.55908 -188.698 72.0723 -197.519
lowerback 4.92779 -3.32707 0.633667
upperback 1.77745 -4.26965 3.25673
thorax -0.725165 -2.10439 3.22165
lowerneck -11.8904 -2.6909 -1.4267
upperneck 7.24038 -4.00188 6.6791
head 4.27591 -1.60117 2.004
rclavicle 4.6118e-014 -1.74931e-014
rhumerus -49.4457 6.42028 -82.9795
rradius 48.1911
rwrist -6.8436
rhand -25.5116 4.99468
rfingers 7.12502
rthumb 1.01747 -24.9826
lclavicle 4.6118e-014 -1.74931e-014
lhumerus -43.5949 -36.6465 108.932
lradius 82.2673
lwrist 17.9659
lhand -14.1905 15.0146
lfingers 7.12502
lthumb 11.9454 44.6538
rfemur -31.3551 3.18853 16.1257
rtibia 49.8828
rfoot -22.6945 -14.1316
rtoes 8.54474
lfemur 3.24332 4.43852 -17.4239
ltibia 35.2675
lfoot -7.47478 11.7593
ltoes 3.89185
